<svg xmlns="http://www.w3.org/2000/svg" fill="none" viewBox="0 0 40 40" class="text-slate-70 h-10 w-10"><path fill="currentColor" d="M31.949 14.321h-1.525l-.815-4.704C29.307 7.023 26.892 5 23.958 5H20v.078L19.987 5h-3.958c-2.934 0-5.35 2.023-5.651 4.617l-.816 4.704H8.038C5.808 14.321 4 15.973 4 18.01V35h7.255v-3.9h17.49V35H36V18.01c0-2.037-1.808-3.689-4.038-3.689h-.013Zm-18.27 7.376H8.025v-3.45h5.656v3.45Zm6.312-7.41v.051l-.013-.051h-5.895l.403-3.057v-.013c.164-1.275 1.357-2.265 2.802-2.265h2.685l.014-.022v.022h2.686c1.449 0 2.641.99 2.805 2.265v.013l.403 3.057h-5.894.004Zm11.954 7.41h-5.656v-3.45h5.656v3.45Z"></path></svg>