<svg xmlns="http://www.w3.org/2000/svg" fill="none" viewBox="0 0 40 40" class="text-slate-70 h-10 w-10"><path fill="currentColor" fill-rule="evenodd" d="M34.635 19.168c.239-.968.365-1.976.365-3.01C35 8.614 28.285 2.5 20 2.5S5 8.614 5 16.159c0 1.034.126 2.04.365 3.009C6.919 25.7 13.215 32.134 20 37.5c6.785-5.366 13.08-11.8 14.635-18.332Zm-7.135-2.45c0 3.746-3.358 6.782-7.5 6.782-4.143 0-7.5-3.036-7.5-6.781 0-3.746 3.357-6.782 7.5-6.782 4.142 0 7.5 3.036 7.5 6.782Z" clip-rule="evenodd"></path></svg>