<svg xmlns="http://www.w3.org/2000/svg" width="40" height="40" fill="none" viewBox="0 0 48 48" class="text-slate-70 h-10 w-10"><path fill="currentColor" fill-rule="evenodd" d="M28.73 5.82h-1.1v36.36h2.75a3.64 3.64 0 0 0 3.55-4.42l-2.66-11.94h7.27l-6.4-17.6a3.64 3.64 0 0 0-3.41-2.4Zm-15.63 0v7.27h1.81V5.82h3.64v7.27h1.81V5.82h1.82L24 13.09l-.93 4.39a3.64 3.64 0 0 1-3.56 2.88h-.96l1.81 21.82H13.1l1.82-21.82h-.97c-1.72 0-3.2-1.2-3.56-2.88l-.92-4.39 1.81-7.27h1.82Z" clip-rule="evenodd"></path></svg>